Coordinates
version=1
nRows=14
nColumns=40
inDegrees=yes

Units are S.I. units (second, meters, Newtons, ...)
Angles are in degrees.

endheader
time	pelvis_tilt	pelvis_list	pelvis_rotation	pelvis_tx	pelvis_ty	pelvis_tz	hip_flexion_r	hip_adduction_r	hip_rotation_r	knee_angle_r	knee_angle_r_beta	ankle_angle_r	subtalar_angle_r	mtp_angle_r	hip_flexion_l	hip_adduction_l	hip_rotation_l	knee_angle_l	knee_angle_l_beta	ankle_angle_l	subtalar_angle_l	mtp_angle_l	lumbar_extension	lumbar_bending	lumbar_rotation	arm_flex_r	arm_add_r	arm_rot_r	elbow_flex_r	pro_sup_r	wrist_flex_r	wrist_dev_r	arm_flex_l	arm_add_l	arm_rot_l	elbow_flex_l	pro_sup_l	wrist_flex_l	wrist_dev_l
     41.09000000	     -5.13841740	     -5.25550990	     -1.79481590	      0.89974000	      0.91812087	      0.42677253	     19.55954819	     -6.45664460	     -5.13332198	     59.92316437	     59.92316437	      3.82822001	    -12.32305333	     -2.02487579	     21.66545841	     -4.50306274	     -1.64467149	     31.62112245	     31.62112245	     17.34174843	    -14.27770743	      3.89466976	     -8.98082309	      3.89689393	      2.90133131	     21.35848941	    -11.40848377	     -6.62380498	     42.63998283	     44.66739155	      0.00000000	      0.00000000	     21.70772642	    -13.03350807	      1.00372705	     40.95115600	     44.57718098	      0.00000000	      0.00000000
     41.10885714	     -4.73477425	     -5.43721972	     -2.13216476	      0.89984336	      0.91755286	      0.42560051	     20.78627674	     -6.15232787	     -4.41691076	     61.31491224	     61.31491224	      3.76914868	    -12.87783652	     -1.98448412	     21.01208770	     -4.50819647	     -1.34768273	     32.13502450	     32.13502450	     17.83076876	    -15.24330879	      4.05312705	     -9.45048792	      4.23697986	      2.95953784	     18.07550566	    -11.46457560	     -6.28456465	     40.14786051	     44.74613062	      0.00000000	      0.00000000	     22.53393194	    -12.89886633	      0.76073287	     41.31592598	     44.64798589	      0.00000000	      0.00000000
     41.12771429	     -4.31911924	     -5.61755786	     -2.43306482	      0.90006460	      0.91702834	      0.42441907	     21.88977453	     -6.00115521	     -4.01279028	     62.37956140	     62.37956140	      3.79496941	    -12.99163076	     -2.07453189	     20.32435572	     -4.59503057	     -1.34904326	     32.64843720	     32.64843720	     18.37755716	    -15.66825570	      3.93037325	     -9.92775189	      4.59673901	      2.38520721	     14.76394637	    -11.18895555	     -6.10646551	     38.34188147	     44.79126983	      0.00000000	      0.00000000	     23.07446070	    -13.24954160	      0.56464933	     41.58212729	     44.68590842	      0.00000000	      0.00000000
     41.14657143	     -4.16739992	     -5.81311753	     -2.83525330	      0.89999377	      0.91609937	      0.42343392	     23.31750186	     -5.73060598	     -3.51445878	     63.20646869	     63.20646869	      3.93773757	    -13.29671812	     -1.72534713	     19.95339597	     -4.71872920	     -1.36191627	     33.20625937	     33.20625937	     19.01255526	    -16.15336132	      4.14618047	    -10.20119361	      4.99815208	      3.15438634	     11.54984749	    -11.65545332	     -5.73755810	     34.53771789	     44.92207574	      0.00000000	      0.00000000	     24.14865690	    -12.58496198	      0.34016873	     42.36880917	     44.75639604	      0.00000000	      0.00000000
     41.16542857	     -3.89949506	     -5.97561832	     -3.19639673	      0.90008731	      0.91559917	      0.42259112	     24.46718513	     -5.52188170	     -3.14530439	     63.53282286	     63.53282286	      4.54011321	    -13.26472845	     -0.28433665	     19.39787452	     -4.80478766	     -1.39031372	     33.70996516	     33.70996516	     20.06987895	    -16.29706258	      5.39418044	    -10.42559726	      5.37640516	      2.42837853	     10.27490721	    -11.22958442	     -5.45148118	     27.86691579	     45.26387091	      0.00000000	      0.00000000	     24.66444590	    -12.87103314	     -0.44375205	     42.39147517	     44.96717718	      0.00000000	      0.00000000
     41.18428571	     -3.68863426	     -6.14095539	     -3.58670167	      0.90016941	      0.91521041	      0.42205387	     25.48271868	     -5.27238266	     -2.85040318	     63.17758927	     63.17758927	      4.74441887	    -13.55489955	     -0.19251607	     18.78833982	     -4.92499256	     -1.50212227	     33.95753850	     33.95753850	     20.53814394	    -16.62915529	      5.42805610	    -10.74530105	      5.76062034	      2.48006053	      7.05228365	    -11.38978878	     -5.55567594	     26.01460829	     45.34360023	      0.00000000	      0.00000000	     25.25725322	    -12.87058419	     -0.75346035	     43.39778608	     45.03560275	      0.00000000	      0.00000000
     41.20314286	     -3.54883944	     -6.28333564	     -3.99506655	      0.90022924	      0.91506229	      0.42185378	     26.39790134	     -5.02328494	     -2.64973149	     62.18261892	     62.18261892	      5.01918055	    -13.80299200	     -0.14171757	     18.16254301	     -5.05494874	     -1.67850329	     34.02445575	     34.02445575	     20.97149588	    -16.85396454	      5.54169547	    -10.96325403	      6.10678579	      2.41556535	      4.04714325	    -11.51808848	     -5.71531554	     24.28694690	     45.42469752	      0.00000000	      0.00000000	     25.76350382	    -12.99184797	     -1.05189370	     44.37440431	     45.09827867	      0.00000000	      0.00000000
     41.22200000	     -3.51126747	     -6.32685796	     -4.42096505	      0.90021600	      0.91506306	      0.42201397	     27.27671251	     -4.88624323	     -2.56396540	     60.60209675	     60.60209675	      5.42964777	    -13.83690522	     -0.12384940	     17.57570366	     -5.11916975	     -1.93773815	     33.93097966	     33.93097966	     21.28621383	    -17.01370565	      5.57464842	    -11.00317980	      6.36640614	      1.79831834	      1.36436582	    -11.58334200	     -5.82518611	     23.15640452	     45.46504337	      0.00000000	      0.00000000	     26.12763211	    -13.68219351	     -1.31677531	     44.80960390	     45.13829386	      0.00000000	      0.00000000
     41.24085714	     -3.49486949	     -6.41806283	     -4.93584482	      0.90019758	      0.91554210	      0.42268096	     27.89798286	     -4.55606869	     -2.46021039	     58.23630868	     58.23630868	      5.69265086	    -14.03770705	     -0.58105629	     16.87683103	     -5.29492831	     -2.34955160	     33.62065395	     33.62065395	     21.65030640	    -17.00448236	      5.93459556	    -11.14490543	      6.57604446	      2.23313036	     -1.56902215	    -11.77496680	     -6.39967698	     21.67881493	     45.59770641	      0.00000000	      0.00000000	     26.49710507	    -13.52230899	     -1.82379974	     47.12278692	     45.24551268	      0.00000000	      0.00000000
     41.25971429	     -3.58398426	     -6.45646824	     -5.43290938	      0.90013752	      0.91625667	      0.42371918	     28.35643702	     -4.31051424	     -2.59112899	     55.13706346	     55.13706346	      5.54999456	    -14.10604291	     -2.40446193	     16.20149604	     -5.43740282	     -2.77600624	     33.11385625	     33.11385625	     21.90174658	    -16.95405411	      6.28083621	    -11.16220852	      6.74212163	      1.71588678	     -4.03360434	    -11.77304853	     -8.03484341	     21.32168882	     45.84745063	      0.00000000	      0.00000000	     26.00522644	    -14.21982517	     -2.77358442	     50.17572918	     45.44518789	      0.00000000	      0.00000000
     41.27857143	     -3.85073499	     -6.44239784	     -5.95183278	      0.89993642	      0.91712780	      0.42521355	     28.85043651	     -4.02428413	     -2.77829250	     51.61947186	     51.61947186	      6.06337492	    -13.53868255	     -2.31833161	     15.58597756	     -5.57107035	     -3.27454274	     32.32771528	     32.32771528	     21.98350463	    -16.81771436	      6.38446819	    -10.88387629	      6.85116154	      1.39080911	     -6.27410402	    -11.90989424	     -8.20719514	     20.58744247	     45.88421462	      0.00000000	      0.00000000	     26.45805264	    -14.83043185	     -3.04968571	     50.76958898	     45.48847222	      0.00000000	      0.00000000
     41.29742857	     -3.97419506	     -6.43742214	     -6.49667033	      0.89984358	      0.91854452	      0.42710803	     28.86134604	     -3.69817789	     -3.11158490	     47.47624204	     47.47624204	      6.48004376	    -12.53571519	     -2.43108355	     14.68179127	     -5.73004812	     -3.86946272	     31.32431092	     31.32431092	     21.95441767	    -16.61898393	      6.47969806	    -10.81849649	      6.90897776	      1.50105455	     -8.48811696	    -12.03745035	     -8.47207811	     20.10349799	     45.92270696	      0.00000000	      0.00000000	     26.96113498	    -15.10522316	     -3.39086443	     52.09863372	     45.54921628	      0.00000000	      0.00000000
     41.31628571	     -4.20404801	     -6.33157981	     -7.06248629	      0.89968958	      0.91984225	      0.42938960	     28.72184892	     -3.43564021	     -3.58743126	     42.81621692	     42.81621692	      6.15236888	    -11.18400154	     -4.67014552	     13.80493848	     -5.83131046	     -4.62018388	     30.12387937	     30.12387937	     21.57541575	    -16.37178584	      5.76312954	    -10.78664720	      6.82766446	      1.57443990	    -11.12519072	    -12.00623064	     -9.89841748	     21.64506801	     46.02297930	      0.00000000	      0.00000000	     26.50813138	    -15.56647463	     -4.53722520	     56.41975129	     45.75990107	      0.00000000	      0.00000000
     41.33514286	     -4.37730898	     -6.21993185	     -7.57374316	      0.89958885	      0.92140612	      0.43198341	     28.30038429	     -3.09827091	     -4.09173753	     37.93919780	     37.93919780	      6.31639197	     -8.96328373	     -4.86538303	     12.78024312	     -5.90634234	     -5.34063091	     28.77677076	     28.77677076	     21.40242455	    -15.91124196	      5.61630130	    -10.73173281	      6.74878239	      1.61523747	    -12.86645529	    -11.91195056	    -10.27926925	     21.62619721	     46.06349065	      0.00000000	      0.00000000	     27.08635284	    -15.98854351	     -5.01769467	     57.97065529	     45.85219955	      0.00000000	      0.00000000
